# xmcd CD database file
#
# Track frame offsets:
#	150
#	36258
#	50426
#	87549
#	102746
#	136538
#	164487
#	201459
#	210905
#	233121
#	247848
#	278514
#
# Disc length: 3908 seconds
#
# Revision: 1
# Processed by: cddbd v1.5.2PL0 Copyright (c) Steve Scherf et al.
# Submitted via: CDex 1.81
#
DISCID=a30f420c
DTITLE=Semafor - Jonas a dokrot Matrace
DYEAR=1969
DGENRE=Jazz
TTITLE0=Mozart
TTITLE1=Mesicku na nebi hlubokem (S+S) - J. Slitr
TTITLE2=o presypacich hodinach
TTITLE3=Klobouky (S+S) - V. Kresadlova
TTITLE4=Anekdoty a jina moudrost
TTITLE5=Jo, to jsem jeste zil (S+S) - J. Suchy a Semafor Girls
TTITLE6=protestovani
TTITLE7=Proti vsem (S+S) - J. Suchy a J. Slitr
TTITLE8=Margareta (S+S) - J. Suchy a Semafor Girls
TTITLE9=Kos (S+S) - J. Suchy
TTITLE10=Rozlouceni
TTITLE11=Bleda slecna (S+S) - J. Suchy
EXTD=YEAR: 1969
EXTT0=
EXTT1=
EXTT2=
EXTT3=
EXTT4=
EXTT5=
EXTT6=
EXTT7=
EXTT8=
EXTT9=
EXTT10=
EXTT11=
PLAYORDER=
